<svg width="626" height="259" viewBox="0 0 626 259" fill="none" xmlns="http://www.w3.org/2000/svg">
<g clip-path="url(#clip0_2_15)">
<rect width="626" height="259" fill="#E2FFF9"/>
<path d="M-22.6062 95.7017L24.4052 131.583C46.6766 148.582 75.0577 155.458 102.639 150.537L112.258 148.821C153.653 141.436 195.245 160.735 216.334 197.112L226.245 214.208C238.607 235.532 258.41 251.54 281.852 259.158L341.865 278.661" stroke="#089D7F" stroke-width="30"/>
<path d="M-50.6062 154.702L-3.5948 190.583C18.6766 207.582 47.0577 214.458 74.6395 209.537L84.2585 207.821C125.653 200.436 167.245 219.735 188.334 256.112L198.245 273.208C210.607 294.532 230.41 310.54 253.852 318.158L313.865 337.661" stroke="#089D7F" stroke-width="30"/>
<path d="M279.46 -50.4803L317.369 11.0288C336.303 41.7503 373.657 55.7236 408.105 44.9709L410.488 44.227C450.188 31.8351 492.507 53.4723 505.707 92.9105V92.9105C516.552 125.315 547.596 146.578 581.73 144.981L588.871 144.647C609.54 143.68 629.863 150.21 646.101 163.035L730.574 229.754" stroke="#089D7F" stroke-width="30"/>
<path d="M314.46 -108.48L352.369 -46.9712C371.303 -16.2497 408.657 -2.27642 443.105 -13.0291L445.488 -13.773C485.188 -26.1649 527.507 -4.52775 540.707 34.9105V34.9105C551.552 67.3152 582.596 88.578 616.73 86.9811L623.871 86.647C644.54 85.6801 664.863 92.2098 681.101 105.035L765.574 171.754" stroke="#089D7F" stroke-width="30"/>
</g>
<defs>
<clipPath id="clip0_2_15">
<rect width="626" height="259" fill="white"/>
</clipPath>
</defs>
</svg>
