<svg width="531" height="1506" viewBox="0 0 531 1506" fill="none" xmlns="http://www.w3.org/2000/svg">
<g clip-path="url(#clip0_30_2)">
<rect x="1.5" y="1506.5" width="1506" height="528" transform="rotate(-90 1.5 1506.5)" fill="#E2FFF9"/>
<path d="M32.5 -63.5L74.3298 82.7451C91.4267 142.519 144.155 184.73 201.726 184.73V184.73C251.647 184.73 298.758 216.617 321.327 265.683L364.586 359.726C396.664 429.462 452.559 484.702 520.059 513.376L622.466 556.879" stroke="#089D7F" stroke-width="30"/>
<path d="M-150.683 1336.08L-60.1585 1184.87C-41.6129 1153.89 -12.3463 1129.27 22.7791 1115.08V1115.08C85.7204 1089.67 127 1032.14 127 969.849L127 931.763C127 850.197 206.222 784.992 293.903 794.391V794.391C352.58 800.681 410.901 773.142 440.945 724.958L519.766 598.543C532.704 577.793 559.122 567.398 583.559 573.443V573.443C606.894 579.216 632.191 570.007 645.71 550.818L697.254 477.656C720.968 443.997 731.152 404.125 725.971 365.229L696.582 144.623" stroke="#089D7F" stroke-width="30"/>
<path d="M-41.5 1140.5L-3.36579 1231.02C27.7967 1304.98 100.419 1350.48 173.531 1341.84V1341.84C251.452 1332.63 328.033 1384.84 355.423 1465.84L367.009 1500.1C387.916 1561.93 432.89 1612.44 489.786 1637.98L572.065 1674.92" stroke="#089D7F" stroke-width="30"/>
</g>
<defs>
<clipPath id="clip0_30_2">
<rect width="1506" height="531" fill="white" transform="matrix(0 -1 1 0 0 1506)"/>
</clipPath>
</defs>
</svg>
