<svg width="531" height="1507" viewBox="0 0 531 1507" fill="none" xmlns="http://www.w3.org/2000/svg">
<g clip-path="url(#clip0_30_2)">
<rect x="1.5" y="1507" width="1506" height="528" transform="rotate(-90 1.5 1507)" fill="#E2FFF9"/>
<path d="M-26.4704 1579.16L66.3495 1492.58C118.28 1444.15 144.919 1377.49 138.637 1311.72V1311.72C129.307 1214.03 192.399 1118.8 292.164 1079.99L353.069 1056.29C393.276 1040.65 430.157 1017.76 461.495 989.01L511.852 942.809C526.05 929.782 538.127 914.903 547.652 898.699V898.699C581.89 840.458 579.788 771.244 542.193 718.918L527.412 698.346C462.968 608.651 484.737 483.896 577.83 409.4L603.323 389" stroke="#089D7F" stroke-width="40"/>
<path d="M109.086 1633.15L201.906 1546.57C253.836 1498.14 280.476 1431.48 274.194 1365.71V1365.71C264.863 1268.02 327.955 1172.79 427.72 1133.97L448.168 1126.02C513.108 1100.75 566.21 1053.11 595.872 993.512L650.15 884.449" stroke="#089D7F" stroke-width="40"/>
<path d="M39.5 -93L63.7892 56.3072C70.0252 94.6399 91.1396 128.556 122.796 151.088L161.528 178.658C213.486 215.641 219.899 289.665 175.385 338.611V338.611C149.045 367.575 139.401 407.221 149.917 443.311L164.248 492.492C188.912 577.135 153.19 669.958 76.359 720.874L3.85047 768.924C-19.831 784.618 -41.4419 803.192 -60.432 824.172L-183.5 960.142" stroke="#089D7F" stroke-width="40"/>
<path d="M225 -100L225 33.6485C225 78.4237 239.337 121.481 266 156.779L306.328 210.168C343.419 259.272 339.01 328.608 295.773 376.15V376.15C264.086 410.992 252.485 458.685 265.136 502.101L276.032 539.492C300.695 624.135 264.974 716.958 188.143 767.874L115.634 815.924C91.9526 831.618 70.3417 850.192 51.3516 871.173L-71.7164 1007.14" stroke="#089D7F" stroke-width="40"/>
</g>
<defs>
<clipPath id="clip0_30_2">
<rect width="1506" height="531" fill="white" transform="matrix(0 -1 1 0 0 1506.5)"/>
</clipPath>
</defs>
</svg>
